<svg width="100%" height="100%" viewBox="0 0 40 40" fill="none" xmlns="http://www.w3.org/2000/svg">
<rect width="100%" height="100%" rx="20" fill="#502398"/>
<path d="M20.0006 0C8.95526 0 0.000976562 8.95449 0.000976562 19.9998C0.000976562 31.0448 8.95526 40 20.0006 40C31.046 40 40.001 31.0448 40.001 19.9998C40.001 8.95422 31.046 0 20.0006 0ZM20.0616 29.4354V29.4351H19.9394H11.3964C11.3964 23.1876 16.8834 23.189 18.101 21.5554L18.2403 20.8105C16.5297 19.9435 15.322 17.8534 15.322 15.4088C15.322 12.1883 17.417 9.57703 20.0006 9.57703C22.5843 9.57703 24.6793 12.1883 24.6793 15.4088C24.6793 17.8326 23.4931 19.9097 21.8052 20.7903L21.9639 21.6369C23.2998 23.1913 28.6043 23.2926 28.6043 29.4354H20.0616V29.4354Z" fill="#1E004C"/>
</svg>
