<svg width="100%" height="100%" viewBox="0 0 20 20" fill="none" xmlns="http://www.w3.org/2000/svg">
<g opacity="0.85">
<path d="M19.2188 2.35012H15.3715V1.5625C15.3715 1.13102 15.0218 0.78125 14.5903 0.78125C14.1588 0.78125 13.809 1.13102 13.809 1.5625V2.35012H6.19098V1.5625C6.19098 1.13102 5.84121 0.78125 5.40973 0.78125C4.97824 0.78125 4.62848 1.13102 4.62848 1.5625V2.35012H0.78125C0.349766 2.35012 0 2.69992 0 3.13137V18.4375C0 18.8689 0.349766 19.2188 0.78125 19.2188H19.2188C19.6502 19.2188 20 18.8689 20 18.4375V3.13137C20 2.69992 19.6502 2.35012 19.2188 2.35012ZM18.4375 17.6562H1.5625V3.91262H4.62848V4.70027C4.62848 5.13176 4.97824 5.48152 5.40973 5.48152C5.84121 5.48152 6.19098 5.13176 6.19098 4.70027V3.91262H13.809V4.70027C13.809 5.13176 14.1588 5.48152 14.5902 5.48152C15.0217 5.48152 15.3715 5.13176 15.3715 4.70027V3.91262H18.4375V17.6562Z" fill="white"/>
<path d="M10 10.2324C10.5825 10.2324 11.0547 9.76022 11.0547 9.17774C11.0547 8.59525 10.5825 8.12305 10 8.12305C9.41751 8.12305 8.94531 8.59525 8.94531 9.17774C8.94531 9.76022 9.41751 10.2324 10 10.2324Z" fill="white"/>
<path d="M10 14.8228C10.5825 14.8228 11.0547 14.3506 11.0547 13.7681C11.0547 13.1856 10.5825 12.7134 10 12.7134C9.41751 12.7134 8.94531 13.1856 8.94531 13.7681C8.94531 14.3506 9.41751 14.8228 10 14.8228Z" fill="white"/>
<path d="M5.40967 10.2324C5.99216 10.2324 6.46436 9.76022 6.46436 9.17774C6.46436 8.59525 5.99216 8.12305 5.40967 8.12305C4.82718 8.12305 4.35498 8.59525 4.35498 9.17774C4.35498 9.76022 4.82718 10.2324 5.40967 10.2324Z" fill="white"/>
<path d="M14.5903 10.2324C15.1728 10.2324 15.645 9.76022 15.645 9.17774C15.645 8.59525 15.1728 8.12305 14.5903 8.12305C14.0078 8.12305 13.5356 8.59525 13.5356 9.17774C13.5356 9.76022 14.0078 10.2324 14.5903 10.2324Z" fill="white"/>
<path d="M5.40967 14.8228C5.99216 14.8228 6.46436 14.3506 6.46436 13.7681C6.46436 13.1856 5.99216 12.7134 5.40967 12.7134C4.82718 12.7134 4.35498 13.1856 4.35498 13.7681C4.35498 14.3506 4.82718 14.8228 5.40967 14.8228Z" fill="white"/>
<path d="M14.5903 14.8228C15.1728 14.8228 15.645 14.3506 15.645 13.7681C15.645 13.1856 15.1728 12.7134 14.5903 12.7134C14.0078 12.7134 13.5356 13.1856 13.5356 13.7681C13.5356 14.3506 14.0078 14.8228 14.5903 14.8228Z" fill="white"/>
</g>
</svg>
