<svg width="18" height="18" viewBox="0 0 18 18" fill="none" xmlns="http://www.w3.org/2000/svg">
<path d="M17.2969 2.11511H13.8344V1.40625C13.8344 1.01791 13.5196 0.703125 13.1312 0.703125C12.7429 0.703125 12.4281 1.01791 12.4281 1.40625V2.11511H5.57188V1.40625C5.57188 1.01791 5.25709 0.703125 4.86875 0.703125C4.48042 0.703125 4.16563 1.01791 4.16563 1.40625V2.11511H0.703125C0.314789 2.11511 0 2.42993 0 2.81823V16.5938C0 16.982 0.314789 17.2969 0.703125 17.2969H17.2969C17.6852 17.2969 18 16.982 18 16.5938V2.81823C18 2.42993 17.6852 2.11511 17.2969 2.11511ZM16.5938 15.8906H1.40625V3.52136H4.16563V4.23025C4.16563 4.61858 4.48042 4.93337 4.86875 4.93337C5.25709 4.93337 5.57188 4.61858 5.57188 4.23025V3.52136H12.4281V4.23025C12.4281 4.61858 12.7429 4.93337 13.1312 4.93337C13.5195 4.93337 13.8343 4.61858 13.8343 4.23025V3.52136H16.5938V15.8906Z" fill="#B2B2B2"/>
<path d="M9 9.20918C9.52424 9.20918 9.94922 8.7842 9.94922 8.25996C9.94922 7.73571 9.52424 7.31073 9 7.31073C8.47576 7.31073 8.05078 7.73571 8.05078 8.25996C8.05078 8.7842 8.47576 9.20918 9 9.20918Z" fill="#B2B2B2"/>
<path d="M9 13.3404C9.52424 13.3404 9.94922 12.9154 9.94922 12.3912C9.94922 11.8669 9.52424 11.442 9 11.442C8.47576 11.442 8.05078 11.8669 8.05078 12.3912C8.05078 12.9154 8.47576 13.3404 9 13.3404Z" fill="#B2B2B2"/>
<path d="M4.8689 9.20918C5.39314 9.20918 5.81812 8.7842 5.81812 8.25996C5.81812 7.73571 5.39314 7.31073 4.8689 7.31073C4.34466 7.31073 3.91968 7.73571 3.91968 8.25996C3.91968 8.7842 4.34466 9.20918 4.8689 9.20918Z" fill="#B2B2B2"/>
<path d="M13.1311 9.20918C13.6553 9.20918 14.0803 8.7842 14.0803 8.25996C14.0803 7.73571 13.6553 7.31073 13.1311 7.31073C12.6069 7.31073 12.1819 7.73571 12.1819 8.25996C12.1819 8.7842 12.6069 9.20918 13.1311 9.20918Z" fill="#B2B2B2"/>
<path d="M4.8689 13.3404C5.39314 13.3404 5.81812 12.9154 5.81812 12.3912C5.81812 11.8669 5.39314 11.442 4.8689 11.442C4.34466 11.442 3.91968 11.8669 3.91968 12.3912C3.91968 12.9154 4.34466 13.3404 4.8689 13.3404Z" fill="#B2B2B2"/>
<path d="M13.1311 13.3404C13.6553 13.3404 14.0803 12.9154 14.0803 12.3912C14.0803 11.8669 13.6553 11.442 13.1311 11.442C12.6069 11.442 12.1819 11.8669 12.1819 12.3912C12.1819 12.9154 12.6069 13.3404 13.1311 13.3404Z" fill="#B2B2B2"/>
</svg>
