<svg width="20" height="20" viewBox="0 0 20 20" fill="none" xmlns="http://www.w3.org/2000/svg">
<path d="M18.0712 4.96094H14.1346L12.9261 2.76137C12.5861 2.14238 11.9402 1.75781 11.2406 1.75781H8.75941C8.05977 1.75781 7.41391 2.14238 7.07391 2.76137L5.86543 4.96094H1.92883C0.865273 4.96094 0 5.83711 0 6.91406V16.2891C0 17.366 0.865273 18.2422 1.92883 18.2422H18.0712C19.1347 18.2422 20 17.366 20 16.2891V6.91406C20 5.83711 19.1347 4.96094 18.0712 4.96094ZM18.4375 16.2891C18.4375 16.5045 18.2732 16.6797 18.0712 16.6797H1.92883C1.72684 16.6797 1.5625 16.5045 1.5625 16.2891V6.91406C1.5625 6.69867 1.72684 6.52344 1.92883 6.52344H6.32762C6.61266 6.52344 6.87508 6.3682 7.0123 6.11836L8.44332 3.51367C8.50887 3.39441 8.63 3.32031 8.75941 3.32031H11.2406C11.37 3.32031 11.4911 3.39441 11.5567 3.51371L12.9877 6.11836C13.1249 6.36816 13.3873 6.52344 13.6724 6.52344H18.0712C18.2732 6.52344 18.4375 6.69867 18.4375 6.91406V16.2891Z" fill="#B3B3B3"/>
<path d="M10 8.47656C8.27688 8.47656 6.875 9.87844 6.875 11.6016C6.875 13.3247 8.27688 14.7266 10 14.7266C11.7231 14.7266 13.125 13.3247 13.125 11.6016C13.125 9.87844 11.7231 8.47656 10 8.47656ZM10 13.1641C9.13844 13.1641 8.4375 12.4631 8.4375 11.6016C8.4375 10.74 9.13844 10.0391 10 10.0391C10.8616 10.0391 11.5625 10.74 11.5625 11.6016C11.5625 12.4631 10.8616 13.1641 10 13.1641Z" fill="#B3B3B3"/>
</svg>
