<svg width="100%" height="100%" viewBox="0 0 15 15" fill="#fff" xmlns="http://www.w3.org/2000/svg">
<path d="M7.5 0C3.3544 0 0 3.3547 0 7.5C0 11.6456 3.3547 15 7.5 15C11.6456 15 15 11.6453 15 7.5C15 3.3544 11.6453 0 7.5 0ZM7.5 13.8281C4.00216 13.8281 1.17188 10.9976 1.17188 7.5C1.17188 4.00216 4.00239 1.17188 7.5 1.17188C10.9978 1.17188 13.8281 4.00239 13.8281 7.5C13.8281 10.9978 10.9976 13.8281 7.5 13.8281Z" fill="white" fill-opacity="0.65"/>
<path d="M7.50006 2.65332C7.17644 2.65332 6.91412 2.91564 6.91412 3.23926V7.25765L5.2771 8.89467C5.04826 9.12348 5.04826 9.49446 5.2771 9.7233C5.50594 9.95214 5.87692 9.95211 6.10576 9.7233L7.9144 7.91466C8.02427 7.8048 8.086 7.65573 8.086 7.50034V3.23926C8.086 2.91564 7.82367 2.65332 7.50006 2.65332Z" fill="white" fill-opacity="0.65"/>
</svg>


