<svg width="16" height="16" viewBox="0 0 16 16" fill="none" xmlns="http://www.w3.org/2000/svg">
<g clip-path="url(#clip0)">
<path d="M7.64355 0.176514C3.49796 0.176514 0.143555 3.53121 0.143555 7.67651C0.143555 11.8221 3.49825 15.1765 7.64355 15.1765C11.7892 15.1765 15.1436 11.8218 15.1436 7.67651C15.1436 3.53092 11.7888 0.176514 7.64355 0.176514ZM7.64355 14.0046C4.14571 14.0046 1.31543 11.1741 1.31543 7.67651C1.31543 4.17867 4.14595 1.34839 7.64355 1.34839C11.1414 1.34839 13.9717 4.17891 13.9717 7.67651C13.9717 11.1744 11.1411 14.0046 7.64355 14.0046Z" fill="#777777"/>
<path d="M7.64361 2.82947C7.32 2.82947 7.05767 3.09179 7.05767 3.41541V7.43379L5.42065 9.07082C5.19181 9.29962 5.19181 9.67061 5.42065 9.89945C5.64949 10.1283 6.02048 10.1283 6.24931 9.89945L8.05796 8.09081C8.16782 7.98094 8.22955 7.83188 8.22955 7.67649V3.41541C8.22955 3.09179 7.96723 2.82947 7.64361 2.82947Z" fill="#777777"/>
</g>
<defs>
<clipPath id="clip0">
<rect width="15" height="15" fill="white" transform="translate(0.143555 0.176514)"/>
</clipPath>
</defs>
</svg>
