<svg width="100%" height="100%" viewBox="0 0 18 18" fill="none" xmlns="http://www.w3.org/2000/svg">
<g clip-path="url(#clip0)">
<path d="M9 1.05859C6.15154 1.05859 3.83411 3.37599 3.83411 6.22449C3.83411 9.07299 6.15154 11.3904 9 11.3904C11.8485 11.3904 14.1659 9.07299 14.1659 6.22449C14.1659 3.37599 11.8485 1.05859 9 1.05859ZM9 9.98413C6.92691 9.98413 5.24036 8.29758 5.24036 6.22449C5.24036 4.15139 6.92691 2.46484 9 2.46484C11.0731 2.46484 12.7596 4.15143 12.7596 6.22449C12.7596 8.29755 11.0731 9.98413 9 9.98413Z" fill="white"/>
<path d="M9.25882 12.7061H8.74122C5.27825 12.7061 2.46094 14.842 2.46094 17.4673C2.46094 17.6087 2.53501 17.7443 2.66685 17.8443C2.79872 17.9442 2.97756 18.0004 3.16406 18.0004H14.8359C15.2243 18.0004 15.5391 17.7618 15.5391 17.4673C15.5391 14.842 12.7217 12.7061 9.25882 12.7061ZM3.91774 16.9343C4.2595 15.1484 6.2923 13.7722 8.74118 13.7722H9.25879C11.7077 13.7722 13.7405 15.1484 14.0822 16.9343H3.91774Z" fill="white"/>
</g>
<defs>
<clipPath id="clip0">
<rect width="100%" height="100%" fill="white"/>
</clipPath>
</defs>
</svg>
