<svg width="16" height="16" viewBox="0 0 16 16" fill="none" xmlns="http://www.w3.org/2000/svg">
<path d="M10.848 0.121974L0.274932 8.98664C0.220851 9.03197 0.182972 9.09122 0.16626 9.15662C0.149548 9.22203 0.154783 9.29053 0.181279 9.35316C0.207774 9.41579 0.254295 9.46962 0.314742 9.5076C0.375189 9.54557 0.446742 9.56592 0.520023 9.56597H6.65239C6.71192 9.56594 6.77054 9.57931 6.82312 9.6049C6.8757 9.63049 6.92062 9.66752 6.95394 9.71274C6.98726 9.75796 7.00795 9.80999 7.01421 9.86425C7.02047 9.91852 7.0121 9.97336 6.98984 10.024L4.56439 15.5066C4.53359 15.5766 4.52963 15.6542 4.55315 15.7265C4.57667 15.7988 4.62628 15.8617 4.69386 15.9048C4.76144 15.948 4.84299 15.9688 4.92516 15.9639C5.00733 15.959 5.08526 15.9287 5.1462 15.878L15.7258 7.01331C15.7799 6.96798 15.8178 6.90873 15.8345 6.84332C15.8512 6.77792 15.846 6.70941 15.8195 6.64678C15.793 6.58416 15.7465 6.53033 15.686 6.49235C15.6256 6.45438 15.554 6.43403 15.4807 6.43397H9.34475C9.28528 6.4339 9.22674 6.42045 9.17426 6.39481C9.12178 6.36918 9.07696 6.33214 9.04372 6.28693C9.01049 6.24173 8.98985 6.18974 8.98363 6.13553C8.97741 6.08131 8.98578 6.02653 9.00802 5.97597L11.4306 0.492641C11.461 0.422674 11.4648 0.345307 11.4411 0.273153C11.4175 0.201 11.3679 0.138316 11.3004 0.0953205C11.2329 0.052325 11.1515 0.0315543 11.0695 0.0363945C10.9875 0.0412348 10.9089 0.0714006 10.848 0.121974Z" fill="#FF7070"/>
</svg>
