<svg width="18" height="18" viewBox="0 0 18 18" fill="none" xmlns="http://www.w3.org/2000/svg">
<g clip-path="url(#clip0)">
<path d="M17.6175 6.46059C17.2864 6.04136 16.7927 5.80089 16.2631 5.80089H13.1498L13.9029 3.17296C14.2281 2.03829 13.3888 0.914062 12.2325 0.914062C11.7246 0.914062 11.2436 1.13832 10.9127 1.5294L7.39719 5.68477C7.33475 5.75856 7.24595 5.80089 7.15359 5.80089H5.53549V5.44932C5.53549 5.06099 5.2207 4.7462 4.83237 4.7462H0.703125C0.314789 4.7462 0 5.06099 0 5.44932V16.3828C0 16.7711 0.314789 17.0859 0.703125 17.0859H4.8324C5.22074 17.0859 5.53553 16.7711 5.53553 16.3828V16.0312H14.6666C15.4712 16.0312 16.1651 15.4769 16.3541 14.6831L17.9506 7.97678C18.0779 7.4423 17.9565 6.88968 17.6175 6.46059ZM4.12928 15.6797H1.40621V6.15245H4.12928C4.12928 6.39679 4.12928 15.4495 4.12928 15.6797ZM16.5826 7.65112L14.9861 14.3575C14.9486 14.515 14.8172 14.625 14.6666 14.625H5.53549V7.20714H7.15359C7.66048 7.20714 8.14054 6.98333 8.47072 6.59306L11.9862 2.4377C12.224 2.15666 12.6562 2.41886 12.5511 2.78554L11.7355 5.63164C11.5089 6.42241 12.096 7.20714 12.9069 7.20714H16.2631C16.3955 7.20714 16.4771 7.2855 16.5141 7.33226C16.5846 7.42159 16.6096 7.53782 16.5826 7.65112Z" fill="#2F80ED"/>
</g>
<defs>
<clipPath id="clip0">
<rect width="18" height="18" fill="white"/>
</clipPath>
</defs>
</svg>
