<svg width="29" height="25" viewBox="0 0 29 25" fill="none" xmlns="http://www.w3.org/2000/svg">
<path d="M12.5678 0C6.74152 0 2.00146 4.29902 2.00146 9.5833C2.00146 13.7657 4.05757 17.5566 7.01582 20.6988C9.46092 23.2959 11.8864 24.7783 11.9885 24.8402C12.1644 24.9467 12.3661 25 12.5678 25C12.7695 25 12.9712 24.9467 13.1471 24.8402C13.2492 24.7783 15.6747 23.2959 18.1198 20.6988C21.0782 17.5565 23.1341 13.7656 23.1341 9.5833C23.1341 4.29902 18.3941 0 12.5678 0ZM12.568 22.8229C10.5732 21.4397 4.11473 16.4312 4.11473 9.5833C4.11473 5.37603 7.90677 1.95312 12.5678 1.95312C17.2288 1.95312 21.0209 5.37603 21.0209 9.5833C21.0209 14.8428 17.0946 19.6889 12.568 22.8229Z" fill="url(#paint0_linear)"/>
<path d="M12.5678 4.70068C9.65469 4.70068 7.28467 6.89112 7.28467 9.5835C7.28467 12.2759 9.65469 14.4663 12.5678 14.4663C15.481 14.4663 17.851 12.2759 17.851 9.5835C17.851 6.89112 15.481 4.70068 12.5678 4.70068ZM12.5678 12.5132C10.8199 12.5132 9.39793 11.1989 9.39793 9.5835C9.39793 7.96807 10.8199 6.65381 12.5678 6.65381C14.3157 6.65381 15.7377 7.96807 15.7377 9.5835C15.7377 11.1989 14.3157 12.5132 12.5678 12.5132Z" fill="url(#paint1_linear)"/>
<defs>
<linearGradient id="paint0_linear" x1="12.5678" y1="-11.7857" x2="12.5678" y2="38.0357" gradientUnits="userSpaceOnUse">
<stop stop-color="#FE7833"/>
<stop offset="1" stop-color="#F82A00"/>
</linearGradient>
<linearGradient id="paint1_linear" x1="12.5678" y1="0.0968841" x2="12.5678" y2="19.5584" gradientUnits="userSpaceOnUse">
<stop stop-color="#FE7833"/>
<stop offset="1" stop-color="#F82A00"/>
</linearGradient>
</defs>
</svg>
