<svg width="18" height="18" viewBox="0 0 18 18" fill="none" xmlns="http://www.w3.org/2000/svg">
<g opacity="0.65">
<path d="M9 0C5.12297 0 1.96875 3.0953 1.96875 6.89998C1.96875 9.91132 3.33696 12.6408 5.3055 14.9032C6.93257 16.7731 8.54659 17.8404 8.61451 17.8849C8.73155 17.9616 8.86577 18 9 18C9.13423 18 9.26845 17.9616 9.38549 17.8849C9.45341 17.8404 11.0674 16.7731 12.6945 14.9032C14.6631 12.6407 16.0312 9.91121 16.0312 6.89998C16.0312 3.0953 12.877 0 9 0ZM9.00014 16.4325C7.67271 15.4366 3.375 11.8305 3.375 6.89998C3.375 3.87074 5.89838 1.40625 9 1.40625C12.1016 1.40625 14.625 3.87074 14.625 6.89998C14.625 10.6868 12.0123 14.176 9.00014 16.4325Z" fill="white"/>
<path d="M9 3.38379C7.06148 3.38379 5.48438 4.9609 5.48438 6.89941C5.48438 8.83793 7.06148 10.415 9 10.415C10.9385 10.415 12.5156 8.83793 12.5156 6.89941C12.5156 4.9609 10.9385 3.38379 9 3.38379ZM9 9.00879C7.83689 9.00879 6.89062 8.06252 6.89062 6.89941C6.89062 5.7363 7.83689 4.79004 9 4.79004C10.1631 4.79004 11.1094 5.7363 11.1094 6.89941C11.1094 8.06252 10.1631 9.00879 9 9.00879Z" fill="white"/>
</g>
</svg>
