<svg height="100%" width="100%" viewBox="0 0 24 18" fill="none" xmlns="http://www.w3.org/2000/svg">
<path d="M0.935199 0.000112507C0.813015 -0.00199577 0.691705 0.0255454 0.57832 0.0811351C0.464935 0.136725 0.361736 0.219255 0.274721 0.323928C0.187706 0.428602 0.11861 0.553332 0.0714481 0.69087C0.0242865 0.828407 0 0.97601 0 1.1251C0 1.27419 0.0242865 1.42179 0.0714481 1.55933C0.11861 1.69687 0.187706 1.82159 0.274721 1.92627C0.361736 2.03094 0.464935 2.11347 0.57832 2.16906C0.691705 2.22465 0.813015 2.25219 0.935199 2.25008H23.0648C23.187 2.25219 23.3083 2.22465 23.4217 2.16906C23.5351 2.11347 23.6383 2.03094 23.7253 1.92627C23.8123 1.82159 23.8814 1.69687 23.9286 1.55933C23.9757 1.42179 24 1.27419 24 1.1251C24 0.97601 23.9757 0.828407 23.9286 0.69087C23.8814 0.553332 23.8123 0.428602 23.7253 0.323928C23.6383 0.219255 23.5351 0.136725 23.4217 0.0811351C23.3083 0.0255454 23.187 -0.00199577 23.0648 0.000112507H0.935199ZM0.935199 7.87501C0.813015 7.87291 0.691705 7.90045 0.57832 7.95604C0.464935 8.01163 0.361736 8.09416 0.274721 8.19883C0.187706 8.3035 0.11861 8.42823 0.0714481 8.56577C0.0242865 8.70331 0 8.85091 0 9C0 9.14909 0.0242865 9.29669 0.0714481 9.43423C0.11861 9.57177 0.187706 9.6965 0.274721 9.80117C0.361736 9.90584 0.464935 9.98837 0.57832 10.044C0.691705 10.0996 0.813015 10.1271 0.935199 10.125H23.0648C23.187 10.1271 23.3083 10.0996 23.4217 10.044C23.5351 9.98837 23.6383 9.90584 23.7253 9.80117C23.8123 9.6965 23.8814 9.57177 23.9286 9.43423C23.9757 9.29669 24 9.14909 24 9C24 8.85091 23.9757 8.70331 23.9286 8.56577C23.8814 8.42823 23.8123 8.3035 23.7253 8.19883C23.6383 8.09416 23.5351 8.01163 23.4217 7.95604C23.3083 7.90045 23.187 7.87291 23.0648 7.87501H0.935199ZM0.935199 15.7499C0.813015 15.7478 0.691705 15.7753 0.57832 15.8309C0.464935 15.8865 0.361736 15.9691 0.274721 16.0737C0.187706 16.1784 0.11861 16.3031 0.0714481 16.4407C0.0242865 16.5782 0 16.7258 0 16.8749C0 17.024 0.0242865 17.1716 0.0714481 17.3091C0.11861 17.4467 0.187706 17.5714 0.274721 17.6761C0.361736 17.7807 0.464935 17.8633 0.57832 17.9189C0.691705 17.9745 0.813015 18.002 0.935199 17.9999H23.0648C23.187 18.002 23.3083 17.9745 23.4217 17.9189C23.5351 17.8633 23.6383 17.7807 23.7253 17.6761C23.8123 17.5714 23.8814 17.4467 23.9286 17.3091C23.9757 17.1716 24 17.024 24 16.8749C24 16.7258 23.9757 16.5782 23.9286 16.4407C23.8814 16.3031 23.8123 16.1784 23.7253 16.0737C23.6383 15.9691 23.5351 15.8865 23.4217 15.8309C23.3083 15.7753 23.187 15.7478 23.0648 15.7499H0.935199Z" fill="white"/>
</svg>
