<svg width="100%" height="100%" viewBox="0 0 17 17" fill="none" xmlns="http://www.w3.org/2000/svg">
<path d="M16.3359 2.52344H14.4766V0.664062C14.4766 0.297272 14.1793 0 13.8125 0H0.664062C0.297272 0 0 0.297272 0 0.664062V13.8125C0 15.5701 1.42994 17 3.1875 17H13.8125C15.5701 17 17 15.5701 17 13.8125V3.1875C17 2.82071 16.7027 2.52344 16.3359 2.52344ZM13.1484 15.6719H3.1875C2.16222 15.6719 1.32812 14.8378 1.32812 13.8125V1.32812H13.1484V15.6719ZM15.6719 13.8125C15.6719 14.6039 15.1749 15.2815 14.4766 15.5493V3.85156H15.6719V13.8125ZM4.44922 8.83203H10.0273C10.3941 8.83203 10.6914 8.53476 10.6914 8.16797V3.51953C10.6914 3.15274 10.3941 2.85547 10.0273 2.85547H4.44922C4.08243 2.85547 3.78516 3.15274 3.78516 3.51953V8.16797C3.78516 8.53476 4.08243 8.83203 4.44922 8.83203ZM5.11328 4.18359H9.36328V7.50391H5.11328V4.18359ZM2.52344 10.8242C2.52344 10.4574 2.82071 10.1602 3.1875 10.1602H11.2891C11.6559 10.1602 11.9531 10.4574 11.9531 10.8242C11.9531 11.191 11.6559 11.4883 11.2891 11.4883H3.1875C2.82071 11.4883 2.52344 11.191 2.52344 10.8242ZM2.52344 13.4805C2.52344 13.1137 2.82071 12.8164 3.1875 12.8164H11.2891C11.6559 12.8164 11.9531 13.1137 11.9531 13.4805C11.9531 13.8473 11.6559 14.1445 11.2891 14.1445H3.1875C2.82071 14.1445 2.52344 13.8473 2.52344 13.4805Z" fill="white"/>
</svg>
