<svg width="16" height="16" viewBox="0 0 16 16" fill="none" xmlns="http://www.w3.org/2000/svg">
<path d="M13.125 2.375V2.875H13.625H15.375C15.4441 2.875 15.5 2.93093 15.5 3V13C15.5 14.378 14.378 15.5 13 15.5H3C1.62197 15.5 0.5 14.378 0.5 13V0.625C0.5 0.555928 0.555928 0.5 0.625 0.5H13C13.0691 0.5 13.125 0.555928 13.125 0.625V2.375ZM12.375 15.25H12.875V14.75V1.25V0.75H12.375H1.25H0.75V1.25V13C0.75 14.2411 1.75889 15.25 3 15.25H12.375ZM13.125 14.6346V15.3619L13.8041 15.1015C14.6477 14.7779 15.25 13.9592 15.25 13V3.625V3.125H14.75H13.625H13.125V3.625V14.6346ZM4.8125 3.4375H4.3125V3.9375V7.0625V7.5625H4.8125H8.8125H9.3125V7.0625V3.9375V3.4375H8.8125H4.8125ZM9.4375 7.8125H4.1875C4.11843 7.8125 4.0625 7.75657 4.0625 7.6875V3.3125C4.0625 3.24343 4.11843 3.1875 4.1875 3.1875H9.4375C9.50657 3.1875 9.5625 3.24343 9.5625 3.3125V7.6875C9.5625 7.75657 9.50657 7.8125 9.4375 7.8125ZM2.875 10.1875C2.875 10.1184 2.93093 10.0625 3 10.0625H10.625C10.6941 10.0625 10.75 10.1184 10.75 10.1875C10.75 10.2566 10.6941 10.3125 10.625 10.3125H3C2.93093 10.3125 2.875 10.2566 2.875 10.1875ZM2.875 12.6875C2.875 12.6184 2.93093 12.5625 3 12.5625H10.625C10.6941 12.5625 10.75 12.6184 10.75 12.6875C10.75 12.7566 10.6941 12.8125 10.625 12.8125H3C2.93093 12.8125 2.875 12.7566 2.875 12.6875Z" fill="white" stroke="url(#paint0_linear)"/>
<defs>
<linearGradient id="paint0_linear" x1="8" y1="0" x2="8" y2="16" gradientUnits="userSpaceOnUse">
<stop stop-color="#FD7474"/>
<stop offset="1" stop-color="#FA4967"/>
</linearGradient>
</defs>
</svg>
