<svg width="100%" height="100%" viewBox="0 0 18 18" fill="none" xmlns="http://www.w3.org/2000/svg">
<path d="M17.2969 2.11511H13.8344V1.40625C13.8344 1.01791 13.5196 0.703125 13.1312 0.703125C12.7429 0.703125 12.4281 1.01791 12.4281 1.40625V2.11511H5.57188V1.40625C5.57188 1.01791 5.25709 0.703125 4.86875 0.703125C4.48042 0.703125 4.16563 1.01791 4.16563 1.40625V2.11511H0.703125C0.314789 2.11511 0 2.42993 0 2.81823V16.5938C0 16.9821 0.314789 17.2969 0.703125 17.2969H17.2969C17.6852 17.2969 18 16.9821 18 16.5938V2.81823C18 2.42993 17.6852 2.11511 17.2969 2.11511ZM16.5938 15.8906H1.40625V3.52136H4.16563V4.23025C4.16563 4.61858 4.48042 4.93337 4.86875 4.93337C5.25709 4.93337 5.57188 4.61858 5.57188 4.23025V3.52136H12.4281V4.23025C12.4281 4.61858 12.7429 4.93337 13.1312 4.93337C13.5195 4.93337 13.8343 4.61858 13.8343 4.23025V3.52136H16.5938V15.8906Z" fill="white"/>
<path d="M9.00035 9.20898C9.52479 9.20898 9.94993 8.784 9.94993 8.25977C9.94993 7.73553 9.52479 7.31055 9.00035 7.31055C8.47592 7.31055 8.05078 7.73553 8.05078 8.25977C8.05078 8.784 8.47592 9.20898 9.00035 9.20898Z" fill="white"/>
<path d="M9.00035 13.3408C9.52479 13.3408 9.94993 12.9158 9.94993 12.3916C9.94993 11.8674 9.52479 11.4424 9.00035 11.4424C8.47592 11.4424 8.05078 11.8674 8.05078 12.3916C8.05078 12.9158 8.47592 13.3408 9.00035 13.3408Z" fill="white"/>
<path d="M4.86913 9.20898C5.39357 9.20898 5.81871 8.784 5.81871 8.25977C5.81871 7.73553 5.39357 7.31055 4.86913 7.31055C4.3447 7.31055 3.91956 7.73553 3.91956 8.25977C3.91956 8.784 4.3447 9.20898 4.86913 9.20898Z" fill="white"/>
<path d="M13.1316 9.20898C13.656 9.20898 14.0812 8.784 14.0812 8.25977C14.0812 7.73553 13.656 7.31055 13.1316 7.31055C12.6071 7.31055 12.182 7.73553 12.182 8.25977C12.182 8.784 12.6071 9.20898 13.1316 9.20898Z" fill="white"/>
<path d="M4.86913 13.3408C5.39357 13.3408 5.81871 12.9158 5.81871 12.3916C5.81871 11.8674 5.39357 11.4424 4.86913 11.4424C4.3447 11.4424 3.91956 11.8674 3.91956 12.3916C3.91956 12.9158 4.3447 13.3408 4.86913 13.3408Z" fill="white"/>
<path d="M13.1316 13.3408C13.656 13.3408 14.0812 12.9158 14.0812 12.3916C14.0812 11.8674 13.656 11.4424 13.1316 11.4424C12.6071 11.4424 12.182 11.8674 12.182 12.3916C12.182 12.9158 12.6071 13.3408 13.1316 13.3408Z" fill="white"/>
</svg>
