<svg width="100%" height="100%" viewBox="0 0 20 20" fill="none" xmlns="http://www.w3.org/2000/svg">
<path d="M18.3837 17.7285L18.3132 17.7995L18.3837 17.7285L13.3355 12.7145C15.6204 9.88759 15.489 5.70303 12.7945 3.02678L12.724 3.09773L12.7945 3.02678C9.93937 0.191091 5.29432 0.191054 2.43925 3.02678C-0.422853 5.86946 -0.423105 10.4708 2.43925 13.3137C5.10072 15.9571 9.31819 16.137 12.1918 13.8497L17.2414 18.865C17.5569 19.1783 18.0682 19.1783 18.3837 18.865L18.3837 18.865C18.6995 18.5512 18.6995 18.0423 18.3837 17.7285ZM11.6522 12.1772C9.42723 14.3871 5.80647 14.3871 3.58151 12.1772C1.35159 9.96245 1.35142 6.37822 3.58151 4.16325C5.80636 1.9535 9.42716 1.95332 11.6522 4.16325C13.8821 6.37805 13.8823 9.96228 11.6522 12.1772Z" fill="white" stroke="white" stroke-width="0.2"/>
</svg>
