<svg width="18" height="17" viewBox="0 0 18 17" fill="none" xmlns="http://www.w3.org/2000/svg">
<path d="M0 15.1919C0 15.4606 0 15.595 0.0882138 15.6544C0.176428 15.7139 0.300977 15.6635 0.550077 15.5626L17.084 8.87036C17.4726 8.71305 17.6669 8.63439 17.6669 8.49958C17.6669 8.36477 17.4726 8.28611 17.084 8.1288L0.550078 1.43652C0.300978 1.33569 0.176428 1.28528 0.0882138 1.34474C0 1.4042 0 1.53856 0 1.8073V6.52774C0 6.69574 0 6.77974 0.0500041 6.83643C0.100008 6.89313 0.183347 6.90362 0.350024 6.92461L9.70556 8.10271C10.8728 8.2497 11.4564 8.32319 11.4564 8.49958C11.4564 8.67597 10.8728 8.74946 9.70556 8.89645L0.350024 10.0746C0.183347 10.0955 0.100008 10.106 0.0500041 10.1627C0 10.2194 0 10.3034 0 10.4714V15.1919Z" fill="#2F80ED"/>
</svg>
