<svg width="18" height="18" viewBox="0 0 18 18" fill="#666666" xmlns="http://www.w3.org/2000/svg">
	<g opacity="0.5" clip-path="url(#clip0)">
	<path d="M14.8695 11.7399C13.8996 11.7399 13.0314 12.1832 12.4567 12.8779L6.17365 9.73637C6.23067 9.50041 6.26112 9.25421 6.26112 9.00098C6.26112 8.74775 6.23067 8.50151 6.17365 8.26558L12.4567 5.12405C13.0314 5.8187 13.8996 6.26206 14.8695 6.26206C16.5956 6.26206 18 4.85771 18 3.13153C18 1.40536 16.5956 0.000976562 14.8695 0.000976562C13.1433 0.000976562 11.739 1.40533 11.739 3.1315C11.739 3.38473 11.7694 3.63096 11.8264 3.8669L5.54337 7.00842C4.9687 6.31377 4.10045 5.87042 3.13059 5.87042C1.40435 5.87042 0 7.27477 0 9.00098C0 10.7271 1.40435 12.1315 3.13052 12.1315C4.10038 12.1315 4.96863 11.6881 5.5433 10.9935L11.8264 14.135C11.7693 14.371 11.7389 14.6172 11.7389 14.8704C11.7389 16.5966 13.1432 18.0009 14.8694 18.0009C16.5956 18.0009 18 16.5966 18 14.8704C18 13.1442 16.5956 11.7399 14.8695 11.7399ZM14.8695 1.40723C15.8202 1.40723 16.5938 2.18073 16.5938 3.1315C16.5938 4.08226 15.8202 4.85577 14.8695 4.85577C13.9187 4.85577 13.1452 4.08226 13.1452 3.1315C13.1452 2.18073 13.9187 1.40723 14.8695 1.40723ZM3.13052 10.7252C2.17976 10.7252 1.40625 9.95174 1.40625 9.00098C1.40625 8.05021 2.17976 7.2767 3.13052 7.2767C4.08129 7.2767 4.8548 8.05021 4.8548 9.00098C4.8548 9.95174 4.08132 10.7252 3.13052 10.7252ZM14.8695 16.5947C13.9187 16.5947 13.1452 15.8212 13.1452 14.8705C13.1452 13.9197 13.9187 13.1462 14.8695 13.1462C15.8202 13.1462 16.5938 13.9197 16.5938 14.8705C16.5938 15.8213 15.8202 16.5947 14.8695 16.5947Z" fill="black"/>
	</g>
	<defs>
	<clipPath id="clip0">
	<rect width="18" height="18"/>
	</clipPath>
	</defs>
</svg>
