<svg width="18" height="18" viewBox="0 0 18 18" fill="none" xmlns="http://www.w3.org/2000/svg">
<path fill-rule="evenodd" clip-rule="evenodd" d="M9.0001 10.8719C7.97399 10.8719 7.13867 10.0318 7.13867 8.9998C7.13867 7.96782 7.97399 7.12773 9.0001 7.12773C10.0262 7.12773 10.8615 7.96782 10.8615 8.9998C10.8615 10.0318 10.0262 10.8719 9.0001 10.8719ZM9.00015 6.19137C7.46059 6.19137 6.20801 7.45112 6.20801 8.99948C6.20801 10.5478 7.46059 11.8076 9.00015 11.8076C10.5397 11.8076 11.7923 10.5478 11.7923 8.99948C11.7923 7.45112 10.5397 6.19137 9.00015 6.19137ZM17.0224 9.16023C15.2541 11.9176 12.2556 13.5635 8.99966 13.5635C5.74372 13.5635 2.74527 11.9176 0.977688 9.16023C0.91564 9.06429 0.91564 8.9348 0.977688 8.83886C2.74527 6.08145 5.74372 4.43636 8.99966 4.43636C12.2556 4.43636 15.2541 6.08145 17.0224 8.83964C17.0837 8.93558 17.0837 9.06429 17.0224 9.16023ZM17.8046 8.33229C15.8656 5.30655 12.5732 3.5 9 3.5C5.42684 3.5 2.13521 5.30655 0.19545 8.33229C-0.0651499 8.73791 -0.0651499 9.26209 0.19545 9.66849C2.13521 12.6934 5.42684 14.5 9 14.5C12.5732 14.5 15.8656 12.6934 17.8046 9.66849C18.0651 9.26287 18.0651 8.73791 17.8046 8.33229Z" fill="#666666"/>
</svg>
