<svg width="100%" height="100%" viewBox="0 0 24 24" fill="none" xmlns="http://www.w3.org/2000/svg">
<path d="M0 0V24H24V0H0ZM17.5061 13.3738L19.5904 15.7688C19.8568 16.075 19.6394 16.5526 19.2335 16.5526H16.8813C16.5096 16.5526 16.1516 16.4118 15.8794 16.1587L15.1829 15.511C14.3968 14.8233 14.0627 14.5874 13.7483 14.5874C13.4339 14.5874 13.3553 14.8232 13.3553 15.4324C13.3553 16.0415 13.2374 16.5526 11.4295 16.5526C9.62158 16.5526 8.2067 15.1966 6.61499 13.094C5.02328 10.9914 4.31584 8.73147 4.31584 8.73147C4.22802 8.44861 4.43947 8.1616 4.73567 8.1616H6.61796C6.97598 8.1616 7.30206 8.3685 7.45219 8.69349C7.60627 9.02709 7.87133 9.54187 8.32469 10.3035C8.96804 11.3843 9.58607 11.8712 9.93618 12.0785C10.0665 12.1557 10.2309 12.0603 10.2309 11.9088V9.31637C10.2309 8.97714 10.1084 8.64938 9.88574 8.39343L9.62039 8.08832C9.55176 8.0094 9.60783 7.88646 9.71237 7.88646H12.6872C13.143 7.88646 13.5125 8.25596 13.5125 8.71179V11.7266C13.5125 11.9208 13.7646 11.9968 13.8719 11.835L16.0131 8.60814C16.1819 8.35377 16.4669 8.20077 16.7721 8.20077H19.2855C19.629 8.20077 19.8379 8.57906 19.655 8.86983L17.431 12.4047C17.2396 12.709 17.2701 13.1026 17.5061 13.3738Z" fill="white"/>
</svg>
